<svg xmlns="http://www.w3.org/2000/svg" xmlns:xlink="http://www.w3.org/1999/xlink" width="20" height="20" version="1.1" viewBox="0 0 20 20"><title>icon--softer</title><desc>Created with Sketch.</desc><g id="Page-1" fill="none" fill-rule="evenodd" stroke="none" stroke-width="1"><g id="softer"><g transform="translate(5.000000, 4.000000)"><path id="Fill-1" fill="#CF63CF" d="M7.54011246,1.3873625 L7.54011246,10.8531125 C7.54011246,11.2457375 7.22294659,11.5629875 6.83155041,11.5629875 L5.50777655,11.5629875 C5.2018577,11.5629875 4.9296799,11.3661125 4.83408026,11.0736125 C4.29422346,9.4266125 2.75788098,8.3128625 1.02471572,8.3128625 L0.709799251,8.3128625 C0.319527773,8.3128625 0.0001125,7.9933625 0.0001125,7.6029875 L0.0001125,4.6374875 C0.0001125,4.2471125 0.319527773,3.9276125 0.709799251,3.9276125 L1.02471572,3.9276125 C2.75788098,3.9276125 4.29422346,2.8138625 4.83408026,1.1668625 C4.9296799,0.8743625 5.2018577,0.6774875 5.50777655,0.6774875 L6.83155041,0.6774875 C7.22294659,0.6774875 7.54011246,0.9947375 7.54011246,1.3873625"/><path id="Stroke-3" stroke="#CF63CF" stroke-linecap="round" stroke-linejoin="round" stroke-width="1.75" d="M9.25,4.8645125 C9.9385,5.5541375 9.9385,6.6858875 9.25,7.3755125"/></g></g></g></svg>