<svg xmlns="http://www.w3.org/2000/svg" xmlns:xlink="http://www.w3.org/1999/xlink" width="16" height="16" version="1.1" viewBox="0 0 16 16"><title>show-icon-active</title><desc>Created with Sketch.</desc><g id="Page-1" fill="none" fill-rule="evenodd" stroke="none" stroke-width="1"><g id="show-icon-active" fill="#4C97FF" fill-rule="nonzero"><g transform="translate(1.000000, 2.000000)"><path id="Combined-Shape" d="M13.5091295,4.36470987 C14.1505195,5.26785566 14.1765976,6.75321925 13.5091295,7.63529009 C13.5091295,7.63529009 11.4744401,11.5 6.99999999,11.5 C2.52555986,11.5 0.49087044,7.63529009 0.49087044,7.63529009 C-0.150519518,6.7321443 -0.176597571,5.24678071 0.49087044,4.36470987 C0.49087044,4.36470987 2.52555986,0.5 6.99999999,0.5 C11.4744401,0.5 13.5091295,4.36470987 13.5091295,4.36470987 Z M6.99889412,9.99889412 C9.2077277,9.99889412 10.9983412,8.20828068 10.9983412,5.99944706 C10.9983412,3.79061344 9.2077277,2 6.99889412,2 C4.7900605,2 2.99944706,3.79061344 2.99944706,5.99944706 C2.99944706,8.20828068 4.7900605,9.99889412 6.99889412,9.99889412 Z"/><circle id="Oval" cx="7" cy="6" r="2"/></g></g></g></svg>