<svg xmlns="http://www.w3.org/2000/svg" id="Layer_1" width="112" height="112" data-name="Layer 1" viewBox="0 0 112 112"><defs><style>.cls-1{opacity:.25}.cls-2{fill:#4c97ff}.cls-3{fill:#3d79cc}.cls-4{opacity:.15}.cls-5{fill:none;stroke:#000;stroke-linecap:round;stroke-linejoin:round}</style></defs><title>dial-face</title><g class="cls-1"><circle cx="56" cy="56" r="55.5" class="cls-2"/><path d="M56,1A55,55,0,1,1,1,56,55.06,55.06,0,0,1,56,1m0-1a56,56,0,1,0,56,56A56,56,0,0,0,56,0Z" class="cls-3"/></g><g class="cls-4"><line x1="56" x2="56" y1="14.86" y2="20.73" class="cls-5"/><line x1="56" x2="56" y1="91.27" y2="97.14" class="cls-5"/><line x1="45.35" x2="46.87" y1="16.26" y2="21.94" class="cls-5"/><line x1="65.13" x2="66.65" y1="90.06" y2="95.74" class="cls-5"/><line x1="35.43" x2="38.37" y1="20.37" y2="25.46" class="cls-5"/><line x1="73.63" x2="76.57" y1="86.54" y2="91.63" class="cls-5"/><line x1="26.91" x2="31.06" y1="26.91" y2="31.06" class="cls-5"/><line x1="80.94" x2="85.09" y1="80.94" y2="85.09" class="cls-5"/><line x1="20.37" x2="25.46" y1="35.43" y2="38.37" class="cls-5"/><line x1="86.54" x2="91.63" y1="73.63" y2="76.57" class="cls-5"/><line x1="16.26" x2="21.94" y1="45.35" y2="46.87" class="cls-5"/><line x1="90.06" x2="95.74" y1="65.13" y2="66.65" class="cls-5"/><line x1="14.86" x2="20.73" y1="56" y2="56" class="cls-5"/><line x1="91.27" x2="97.14" y1="56" y2="56" class="cls-5"/><line x1="16.26" x2="21.94" y1="66.65" y2="65.13" class="cls-5"/><line x1="90.06" x2="95.74" y1="46.87" y2="45.35" class="cls-5"/><line x1="20.37" x2="25.46" y1="76.57" y2="73.63" class="cls-5"/><line x1="86.54" x2="91.63" y1="38.37" y2="35.43" class="cls-5"/><line x1="26.91" x2="31.06" y1="85.09" y2="80.94" class="cls-5"/><line x1="80.94" x2="85.09" y1="31.06" y2="26.91" class="cls-5"/><line x1="35.43" x2="38.37" y1="91.63" y2="86.54" class="cls-5"/><line x1="73.63" x2="76.57" y1="25.46" y2="20.37" class="cls-5"/><line x1="45.35" x2="46.87" y1="95.74" y2="90.06" class="cls-5"/><line x1="65.13" x2="66.65" y1="21.94" y2="16.26" class="cls-5"/></g><circle cx="56" cy="56" r="2" class="cls-2"/></svg>