<svg xmlns="http://www.w3.org/2000/svg" xmlns:xlink="http://www.w3.org/1999/xlink" width="20" height="20" version="1.1" viewBox="0 0 20 20"><title>Large Stage (active)</title><desc>Created with Sketch.</desc><g id="Page-1" fill="none" fill-rule="evenodd" stroke="none" stroke-linecap="round" stroke-linejoin="round" stroke-width="1"><g id="Large-Stage-(active)" stroke="#4C97FF"><g id="large-stage-(inactive)" transform="translate(3.000000, 4.000000)"><path id="Rectangle" d="M1,0 L7,0 L7,12 L1,12 L1,12 C0.44771525,12 6.76353751e-17,11.5522847 0,11 L0,1 L0,1 C-6.76353751e-17,0.44771525 0.44771525,1.01453063e-16 1,0 Z"/><path id="Rectangle" fill="#4C97FF" d="M7,0 L13,0 L13,0 C13.5522847,-1.01453063e-16 14,0.44771525 14,1 L14,5.25 L7,5.25 L7,0 Z"/><path id="Rectangle-Copy" d="M7,5 L14,5 L14,11 L14,11 C14,11.5522847 13.5522847,12 13,12 L7,12 L7,5 Z"/></g></g></g></svg>